name rise35.5848peak51.9257fall54.8793.mot
datacolumns 19
datarows 36
range 14.51827600000000 14.57660700000000
endheader
time	ground_force1_vx	ground_force1_vy	ground_force1_vz	ground_force1_px	ground_force1_py	ground_force1_pz	ground_force2_vx	ground_force2_vy	ground_force2_vz	ground_force2_px	ground_force2_py	ground_force2_pz	ground_torque1_x	ground_torque1_y	ground_torque1_z	ground_torque2_x	ground_torque2_y	ground_torque2_z	
14.51827600000000	10.68061600000000	728.88799700000004	50.15714200000000	0.18719100000000	0.00000000000000	0.13506000000000	0.00000000000000	0.00000000000000	0.00000000000000	0.00000000000000	0.00000000000000	0.00000000000000	0.00000000000000	16.31515500000000	0.00000000000000	0.00000000000000	0.00000000000000	0.00000000000000	
14.51993700000000	10.34825800000000	729.81974600000001	50.08436700000000	0.18626200000000	0.00000000000000	0.13493700000000	0.00000000000000	0.00000000000000	0.00000000000000	0.00000000000000	0.00000000000000	0.00000000000000	0.00000000000000	16.30976800000000	0.00000000000000	0.00000000000000	0.00000000000000	0.00000000000000	
14.52160900000000	10.00518700000000	730.75551399999995	50.01476200000000	0.18531800000000	0.00000000000000	0.13481400000000	0.00000000000000	0.00000000000000	0.00000000000000	0.00000000000000	0.00000000000000	0.00000000000000	0.00000000000000	16.30807100000000	0.00000000000000	0.00000000000000	0.00000000000000	0.00000000000000	
14.52327700000000	9.65123200000000	731.69364299999995	49.94830800000000	0.18435900000000	0.00000000000000	0.13469300000000	0.00000000000000	0.00000000000000	0.00000000000000	0.00000000000000	0.00000000000000	0.00000000000000	0.00000000000000	16.31010700000000	0.00000000000000	0.00000000000000	0.00000000000000	0.00000000000000	
14.52493800000000	9.28625800000000	732.63256500000000	49.88498500000000	0.18338600000000	0.00000000000000	0.13457300000000	0.00000000000000	0.00000000000000	0.00000000000000	0.00000000000000	0.00000000000000	0.00000000000000	0.00000000000000	16.31591200000000	0.00000000000000	0.00000000000000	0.00000000000000	0.00000000000000	
14.52661000000000	8.91016400000000	733.57080599999995	49.82477600000000	0.18240000000000	0.00000000000000	0.13445400000000	0.00000000000000	0.00000000000000	0.00000000000000	0.00000000000000	0.00000000000000	0.00000000000000	0.00000000000000	16.32551900000000	0.00000000000000	0.00000000000000	0.00000000000000	0.00000000000000	
14.52827300000000	8.52288600000000	734.50698599999998	49.76766200000000	0.18140100000000	0.00000000000000	0.13433600000000	0.00000000000000	0.00000000000000	0.00000000000000	0.00000000000000	0.00000000000000	0.00000000000000	0.00000000000000	16.33895200000000	0.00000000000000	0.00000000000000	0.00000000000000	0.00000000000000	
14.52993600000000	8.12439800000000	735.43982600000004	49.71362800000000	0.18039100000000	0.00000000000000	0.13422000000000	0.00000000000000	0.00000000000000	0.00000000000000	0.00000000000000	0.00000000000000	0.00000000000000	0.00000000000000	16.35623200000000	0.00000000000000	0.00000000000000	0.00000000000000	0.00000000000000	
14.53160700000000	7.71470700000000	736.36814400000003	49.66265500000000	0.17937100000000	0.00000000000000	0.13410400000000	0.00000000000000	0.00000000000000	0.00000000000000	0.00000000000000	0.00000000000000	0.00000000000000	0.00000000000000	16.37737100000000	0.00000000000000	0.00000000000000	0.00000000000000	0.00000000000000	
14.53327300000000	7.29385600000000	737.29086299999994	49.61472700000000	0.17834100000000	0.00000000000000	0.13398900000000	0.00000000000000	0.00000000000000	0.00000000000000	0.00000000000000	0.00000000000000	0.00000000000000	0.00000000000000	16.40237500000000	0.00000000000000	0.00000000000000	0.00000000000000	0.00000000000000	
14.53494000000000	6.86192700000000	738.20700599999998	49.56982600000000	0.17730300000000	0.00000000000000	0.13387600000000	0.00000000000000	0.00000000000000	0.00000000000000	0.00000000000000	0.00000000000000	0.00000000000000	0.00000000000000	16.43124200000000	0.00000000000000	0.00000000000000	0.00000000000000	0.00000000000000	
14.53660300000000	6.41903100000000	739.11569899999995	49.52793700000000	0.17625700000000	0.00000000000000	0.13376300000000	0.00000000000000	0.00000000000000	0.00000000000000	0.00000000000000	0.00000000000000	0.00000000000000	0.00000000000000	16.46396200000000	0.00000000000000	0.00000000000000	0.00000000000000	0.00000000000000	
14.53827300000000	5.96531900000000	740.01617099999999	49.48904100000000	0.17520600000000	0.00000000000000	0.13365200000000	0.00000000000000	0.00000000000000	0.00000000000000	0.00000000000000	0.00000000000000	0.00000000000000	0.00000000000000	16.50051700000000	0.00000000000000	0.00000000000000	0.00000000000000	0.00000000000000	
14.53993600000000	5.50097000000000	740.90775199999996	49.45311900000000	0.17414900000000	0.00000000000000	0.13354200000000	0.00000000000000	0.00000000000000	0.00000000000000	0.00000000000000	0.00000000000000	0.00000000000000	0.00000000000000	16.54088100000000	0.00000000000000	0.00000000000000	0.00000000000000	0.00000000000000	
14.54162000000000	5.02620000000000	741.78987700000005	49.42015400000000	0.17308900000000	0.00000000000000	0.13343200000000	0.00000000000000	0.00000000000000	0.00000000000000	0.00000000000000	0.00000000000000	0.00000000000000	0.00000000000000	16.58501900000000	0.00000000000000	0.00000000000000	0.00000000000000	0.00000000000000	
14.54327700000000	4.54125300000000	742.66207699999995	49.39012600000000	0.17202600000000	0.00000000000000	0.13332400000000	0.00000000000000	0.00000000000000	0.00000000000000	0.00000000000000	0.00000000000000	0.00000000000000	0.00000000000000	16.63288800000000	0.00000000000000	0.00000000000000	0.00000000000000	0.00000000000000	
14.54494100000000	4.04640600000000	743.52398300000004	49.36301400000000	0.17096100000000	0.00000000000000	0.13321600000000	0.00000000000000	0.00000000000000	0.00000000000000	0.00000000000000	0.00000000000000	0.00000000000000	0.00000000000000	16.68443600000000	0.00000000000000	0.00000000000000	0.00000000000000	0.00000000000000	
14.54661600000000	3.54196300000000	744.37532299999998	49.33879600000000	0.16989500000000	0.00000000000000	0.13311000000000	0.00000000000000	0.00000000000000	0.00000000000000	0.00000000000000	0.00000000000000	0.00000000000000	0.00000000000000	16.73960200000000	0.00000000000000	0.00000000000000	0.00000000000000	0.00000000000000	
14.54827300000000	3.02825800000000	745.21591699999999	49.31745100000000	0.16883100000000	0.00000000000000	0.13300400000000	0.00000000000000	0.00000000000000	0.00000000000000	0.00000000000000	0.00000000000000	0.00000000000000	0.00000000000000	16.79831500000000	0.00000000000000	0.00000000000000	0.00000000000000	0.00000000000000	
14.54993500000000	2.50565000000000	746.04567799999995	49.29895500000000	0.16776800000000	0.00000000000000	0.13289900000000	0.00000000000000	0.00000000000000	0.00000000000000	0.00000000000000	0.00000000000000	0.00000000000000	0.00000000000000	16.86049800000000	0.00000000000000	0.00000000000000	0.00000000000000	0.00000000000000	
14.55160900000000	1.97452400000000	746.86460499999998	49.28328300000000	0.16670700000000	0.00000000000000	0.13279500000000	0.00000000000000	0.00000000000000	0.00000000000000	0.00000000000000	0.00000000000000	0.00000000000000	0.00000000000000	16.92606200000000	0.00000000000000	0.00000000000000	0.00000000000000	0.00000000000000	
14.55327200000000	1.43528800000000	747.67278299999998	49.27041000000000	0.16565000000000	0.00000000000000	0.13269200000000	0.00000000000000	0.00000000000000	0.00000000000000	0.00000000000000	0.00000000000000	0.00000000000000	0.00000000000000	16.99491200000000	0.00000000000000	0.00000000000000	0.00000000000000	0.00000000000000	
14.55494100000000	0.88837300000000	748.47037599999999	49.26030900000000	0.16459800000000	0.00000000000000	0.13259000000000	0.00000000000000	0.00000000000000	0.00000000000000	0.00000000000000	0.00000000000000	0.00000000000000	0.00000000000000	17.06694200000000	0.00000000000000	0.00000000000000	0.00000000000000	0.00000000000000	
14.55661100000000	0.33422900000000	749.25762599999996	49.25295200000000	0.16355100000000	0.00000000000000	0.13248800000000	0.00000000000000	0.00000000000000	0.00000000000000	0.00000000000000	0.00000000000000	0.00000000000000	0.00000000000000	17.14203900000000	0.00000000000000	0.00000000000000	0.00000000000000	0.00000000000000	
14.55828400000000	-0.22667200000000	750.03484500000002	49.24831000000000	0.16251000000000	0.00000000000000	0.13238700000000	0.00000000000000	0.00000000000000	0.00000000000000	0.00000000000000	0.00000000000000	0.00000000000000	0.00000000000000	17.22008200000000	0.00000000000000	0.00000000000000	0.00000000000000	0.00000000000000	
14.55994200000000	-0.79384400000000	750.80241500000000	49.24635400000000	0.16147700000000	0.00000000000000	0.13228600000000	0.00000000000000	0.00000000000000	0.00000000000000	0.00000000000000	0.00000000000000	0.00000000000000	0.00000000000000	17.30093900000000	0.00000000000000	0.00000000000000	0.00000000000000	0.00000000000000	
14.56161000000000	-1.36678300000000	751.56078000000002	49.24705100000000	0.16045000000000	0.00000000000000	0.13218600000000	0.00000000000000	0.00000000000000	0.00000000000000	0.00000000000000	0.00000000000000	0.00000000000000	0.00000000000000	17.38447300000000	0.00000000000000	0.00000000000000	0.00000000000000	0.00000000000000	
14.56327800000000	-1.94497200000000	752.31044299999996	49.25037200000000	0.15943300000000	0.00000000000000	0.13208700000000	0.00000000000000	0.00000000000000	0.00000000000000	0.00000000000000	0.00000000000000	0.00000000000000	0.00000000000000	17.47053800000000	0.00000000000000	0.00000000000000	0.00000000000000	0.00000000000000	
14.56494000000000	-2.52788000000000	753.05195800000001	49.25628300000000	0.15842300000000	0.00000000000000	0.13198800000000	0.00000000000000	0.00000000000000	0.00000000000000	0.00000000000000	0.00000000000000	0.00000000000000	0.00000000000000	17.55898200000000	0.00000000000000	0.00000000000000	0.00000000000000	0.00000000000000	
14.56660500000000	-3.11496900000000	753.78592900000001	49.26475000000000	0.15742300000000	0.00000000000000	0.13189000000000	0.00000000000000	0.00000000000000	0.00000000000000	0.00000000000000	0.00000000000000	0.00000000000000	0.00000000000000	17.64964300000000	0.00000000000000	0.00000000000000	0.00000000000000	0.00000000000000	
14.56827200000000	-3.70568700000000	754.51300100000003	49.27574100000000	0.15643300000000	0.00000000000000	0.13179200000000	0.00000000000000	0.00000000000000	0.00000000000000	0.00000000000000	0.00000000000000	0.00000000000000	0.00000000000000	17.74235400000000	0.00000000000000	0.00000000000000	0.00000000000000	0.00000000000000	
14.56995000000000	-4.29948000000000	755.23385599999995	49.28922000000000	0.15545300000000	0.00000000000000	0.13169400000000	0.00000000000000	0.00000000000000	0.00000000000000	0.00000000000000	0.00000000000000	0.00000000000000	0.00000000000000	17.83694200000000	0.00000000000000	0.00000000000000	0.00000000000000	0.00000000000000	
14.57160600000000	-4.89578500000000	755.94920999999999	49.30515200000000	0.15448300000000	0.00000000000000	0.13159700000000	0.00000000000000	0.00000000000000	0.00000000000000	0.00000000000000	0.00000000000000	0.00000000000000	0.00000000000000	17.93322700000000	0.00000000000000	0.00000000000000	0.00000000000000	0.00000000000000	
14.57327300000000	-5.49403800000000	756.65980300000001	49.32350300000000	0.15352300000000	0.00000000000000	0.13150000000000	0.00000000000000	0.00000000000000	0.00000000000000	0.00000000000000	0.00000000000000	0.00000000000000	0.00000000000000	18.03102400000000	0.00000000000000	0.00000000000000	0.00000000000000	0.00000000000000	
14.57494400000000	-6.09366900000000	757.36639600000001	49.34423700000000	0.15257300000000	0.00000000000000	0.13140400000000	0.00000000000000	0.00000000000000	0.00000000000000	0.00000000000000	0.00000000000000	0.00000000000000	0.00000000000000	18.13014100000000	0.00000000000000	0.00000000000000	0.00000000000000	0.00000000000000	
14.57660700000000	-6.69411400000000	758.06976499999996	49.36731900000000	0.15163400000000	0.00000000000000	0.13130800000000	0.00000000000000	0.00000000000000	0.00000000000000	0.00000000000000	0.00000000000000	0.00000000000000	0.00000000000000	18.23038300000000	0.00000000000000	0.00000000000000	0.00000000000000	0.00000000000000	
